# xmcd
#
# Track frame offsets:
# 150
# 13262
# 24970
# 34867
# 42492
# 58505
# 88237
# 101022
# 115280
# 134672
# 145677
# 158265
#
# Disc length: 2302 seconds
#
#
# Revision: 0
# Processed by: cddbd v1.5.1PL2 Copyright (c) Steve Scherf et al.
# Submitted via: Nero 7, 0, 5, 4 
#
DISCID=9d08fc0c
DTITLE=Appalachian Barn Orchestra - Appalachian Barn Orchestra
DYEAR=1989
DGENRE=country
TTITLE0=Twenty Cows, Fifty Pigs And Five Hundred Chicken
TTITLE1=Mystical
TTITLE2=Toogh Luck Man
TTITLE3=Pig In A Pan
TTITLE4=Who's Gonna Shoe Your Pretty Little Foot
TTITLE5=Pacific Morning
TTITLE6=Let Me Go Lover
TTITLE7=The New Barn
TTITLE8=Five Hundred Miles
TTITLE9=Blue Angel
TTITLE10=Darling Corey
TTITLE11=Duelling Banjos
EXTD=
EXTT0=
EXTT1=
EXTT2=
EXTT3=
EXTT4=
EXTT5=
EXTT6=
EXTT7=
EXTT8=
EXTT9=
EXTT10=
EXTT11=
PLAYORDER=
